{"asset":{"version":"2.0","generator":"vipertecpro\/scene3d primitive generator"},"scene":0,"scenes":[{"nodes":[0]}],"nodes":[{"mesh":0,"name":"box"}],"meshes":[{"name":"box","primitives":[{"attributes":{"POSITION":0,"NORMAL":1},"indices":2,"material":0}]}],"materials":[{"name":"scene3d-default","pbrMetallicRoughness":{"baseColorFactor":[1,1,1,1],"metallicFactor":0,"roughnessFactor":0.5},"doubleSided":false}],"accessors":[{"bufferView":0,"componentType":5126,"count":24,"type":"VEC3","min":[-0.5,-0.5,-0.5],"max":[0.5,0.5,0.5]},{"bufferView":1,"componentType":5126,"count":24,"type":"VEC3"},{"bufferView":2,"componentType":5123,"count":36,"type":"SCALAR"}],"bufferViews":[{"buffer":0,"byteOffset":0,"byteLength":288,"target":34962},{"buffer":0,"byteOffset":288,"byteLength":288,"target":34962},{"buffer":0,"byteOffset":576,"byteLength":72,"target":34963}],"buffers":[{"byteLength":648,"uri":"data:application\/octet-stream;base64,\/AAAAPwAAAL8AAAA\/AAAAPwAAAD8AAAA\/AAAAvwAAAD8AAAA\/AAAAPwAAAL8AAAC\/AAAAvwAAAL8AAAC\/AAAAvwAAAD8AAAC\/AAAAPwAAAD8AAAC\/AAAAPwAAAL8AAAA\/AAAAPwAAAL8AAAC\/AAAAPwAAAD8AAAC\/AAAAPwAAAD8AAAA\/AAAAvwAAAL8AAAC\/AAAAvwAAAL8AAAA\/AAAAvwAAAD8AAAA\/AAAAvwAAAD8AAAC\/AAAAvwAAAD8AAAA\/AAAAPwAAAD8AAAA\/AAAAPwAAAD8AAAC\/AAAAvwAAAD8AAAC\/AAAAvwAAAL8AAAC\/AAAAPwAAAL8AAAC\/AAAAPwAAAL8AAAA\/AAAAvwAAAL8AAAA\/AAAAAAAAAAAAAIA\/AAAAAAAAAAAAAIA\/AAAAAAAAAAAAAIA\/AAAAAAAAAAAAAIA\/AAAAAAAAAAAAAIC\/AAAAAAAAAAAAAIC\/AAAAAAAAAAAAAIC\/AAAAAAAAAAAAAIC\/AACAPwAAAAAAAAAAAACAPwAAAAAAAAAAAACAPwAAAAAAAAAAAACAPwAAAAAAAAAAAACAvwAAAAAAAAAAAACAvwAAAAAAAAAAAACAvwAAAAAAAAAAAACAvwAAAAAAAAAAAAAAAAAAgD8AAAAAAAAAAAAAgD8AAAAAAAAAAAAAgD8AAAAAAAAAAAAAgD8AAAAAAAAAAAAAgL8AAAAAAAAAAAAAgL8AAAAAAAAAAAAAgL8AAAAAAAAAAAAAgL8AAAAAAAABAAIAAAACAAMABAAFAAYABAAGAAcACAAJAAoACAAKAAsADAANAA4ADAAOAA8AEAARABIAEAASABMAFAAVABYAFAAWABcA"}]}