{"asset":{"version":"2.0","generator":"vipertecpro\/scene3d primitive generator"},"scene":0,"scenes":[{"nodes":[0]}],"nodes":[{"mesh":0,"name":"plane"}],"meshes":[{"name":"plane","primitives":[{"attributes":{"POSITION":0,"NORMAL":1},"indices":2,"material":0}]}],"materials":[{"name":"scene3d-default","pbrMetallicRoughness":{"baseColorFactor":[1,1,1,1],"metallicFactor":0,"roughnessFactor":0.5},"doubleSided":false}],"accessors":[{"bufferView":0,"componentType":5126,"count":4,"type":"VEC3","min":[-0.5,0,-0.5],"max":[0.5,0,0.5]},{"bufferView":1,"componentType":5126,"count":4,"type":"VEC3"},{"bufferView":2,"componentType":5123,"count":6,"type":"SCALAR"}],"bufferViews":[{"buffer":0,"byteOffset":0,"byteLength":48,"target":34962},{"buffer":0,"byteOffset":48,"byteLength":48,"target":34962},{"buffer":0,"byteOffset":96,"byteLength":12,"target":34963}],"buffers":[{"byteLength":108,"uri":"data:application\/octet-stream;base64,\/AAAAPwAAAAAAAAA\/AAAAPwAAAAAAAAC\/AAAAvwAAAAAAAAC\/AAAAAAAAgD8AAAAAAAAAAAAAgD8AAAAAAAAAAAAAgD8AAAAAAAAAAAAAgD8AAAAAAAABAAIAAAACAAMA"}]}